# xmcd
#
# Track frame offsets: 
#        150
#        11142
#        27333
#        51245
#        75788
#        95124
#        117338
#        122265
#        144245
#        163977
#        164815
#        179424
#        195609
#        217690
#
# Disc length: 3213 seconds
#
# Revision: 2
# Processed by: cddbd v1.5.2PL0 Copyright (c) Steve Scherf et al.
# Submitted via: ExactAudioCopy v0.99pb4
#
DISCID=ba0c8b0e
DTITLE=Nemesis - Tha People Want Bass
DYEAR=1995
DGENRE=Rap
TTITLE0=Tha People Want Bass
TTITLE1=Drop Tha Bottom
TTITLE2=Make Sweet Luv 2 U
TTITLE3=I Need A Freak
TTITLE4=I Want Your Body
TTITLE5=Trendsetter
TTITLE6=Checkout Time
TTITLE7=Just A Freak
TTITLE8=Drop Tha Bottom (Miami Drop Mix)
TTITLE9=What Did He Say?
TTITLE10=Let's Get Ready To Rumble
TTITLE11=Make You Move
TTITLE12=Pusherman '95
TTITLE13=Freestylin'
EXTD=
EXTT0=
EXTT1=
EXTT2=
EXTT3=
EXTT4=
EXTT5=
EXTT6=
EXTT7=
EXTT8=
EXTT9=
EXTT10=
EXTT11=
EXTT12=
EXTT13=
PLAYORDER=
